<svg width="207" height="50" viewBox="0 0 207 50" fill="none" xmlns="http://www.w3.org/2000/svg">
<g clip-path="url(#clip0_340_600)">
<path d="M30.9103 17.3837V35.3161C30.9103 36.3111 31.3158 37.2037 31.9721 37.8622C32.6283 38.5133 33.5353 38.9157 34.5381 38.9157H35.0616C37.0599 38.9157 38.6895 37.3061 38.6895 35.3161V32.5871L33.8892 33.8235C33.8155 33.8455 33.7344 33.8528 33.6533 33.8528C33.1592 33.8528 32.7316 33.4577 32.7316 32.9383C32.7316 32.6163 32.9011 32.3237 33.1666 32.1554L49.4845 24.3708V35.0966C49.4845 39.2157 47.8033 42.9397 45.0824 45.6395C42.3615 48.3392 38.6083 50.0073 34.457 50.0073C33.2551 50.0073 32.0679 49.861 30.9103 49.583L27.7396 48.4343L24.7459 46.9491L21.7448 48.4343C20.7347 48.9391 19.6729 49.3196 18.5742 49.583C17.4165 49.861 16.222 50.0073 15.0275 50.0073C10.8761 50.0073 7.12293 48.3392 4.40206 45.6395C1.68119 42.9397 0 39.2157 0 35.0966V24.3708L16.3178 32.1554C16.5907 32.3237 16.7529 32.6163 16.7529 32.9383C16.7529 33.4577 16.3252 33.8528 15.8312 33.8528C15.7575 33.8528 15.6763 33.8455 15.5952 33.8235L10.795 32.5871V35.3161C10.795 37.2988 12.4172 38.9157 14.4228 38.9157H14.9464C15.9492 38.9157 16.8561 38.5133 17.5124 37.8622C18.1686 37.211 18.5742 36.3111 18.5742 35.3161V17.3837H0V5.1434H15.6837C16.4948 5.1434 17.2469 5.59701 17.6082 6.32133L18.5668 8.20896V0H30.9029V8.20164L31.8615 6.31402C32.2301 5.5897 32.9749 5.13608 33.786 5.13608H49.4697V17.3764H30.8955L30.9103 17.3837Z" fill="#C71539"/>
<path d="M65.897 10.3599V23.2367H60.4332V9.60631C60.4332 8.1284 60.8461 6.97973 61.6719 6.1603C62.4978 5.34087 63.8103 4.93115 65.6168 4.93115H68.8465V9.07953H67.2759C66.7376 9.07953 66.3689 9.16733 66.1846 9.3356C65.9929 9.51119 65.897 9.84775 65.897 10.3526V10.3599ZM65.897 21.4003V29.28C65.897 29.7482 65.9929 30.0848 66.1846 30.2677C66.3763 30.4579 66.7376 30.553 67.2759 30.553H68.7949V34.7014H65.6094C63.8029 34.7014 62.4904 34.2917 61.6646 33.4723C60.8387 32.6528 60.4258 31.5042 60.4258 30.0263V21.393H65.8896L65.897 21.4003ZM71.1249 29.28V21.6344H76.5888V30.0336C76.5888 31.5115 76.1832 32.6602 75.3795 33.4796C74.5684 34.299 73.2485 34.7087 71.4125 34.7087H67.9911V30.5604H69.7977C70.3359 30.5604 70.6899 30.4652 70.8668 30.275C71.0438 30.0848 71.1249 29.7556 71.1249 29.2873V29.28ZM71.1249 23.2367V10.3599C71.1249 9.85506 71.0364 9.51851 70.8668 9.34292C70.6899 9.16733 70.3359 9.08684 69.7977 9.08684H68.1828V4.93847H71.4125C73.2485 4.93847 74.5758 5.34819 75.3795 6.16762C76.1906 6.98705 76.5888 8.13572 76.5888 9.61362V23.244H71.1249V23.2367Z" fill="white"/>
<path d="M88.6683 10.1697V29.5141C88.6683 29.9824 88.7641 30.3189 88.9558 30.5018C89.1475 30.6921 89.4941 30.7872 90.0029 30.7872H91.3375V34.7526H88.3438C86.5373 34.7526 85.2248 34.3429 84.3989 33.5235C83.5731 32.7041 83.1602 31.5554 83.1602 30.0775V9.60631C83.1602 8.1284 83.5731 6.97973 84.3989 6.1603C85.2248 5.34087 86.5373 4.93115 88.3438 4.93115H91.5292V8.89662H90.0103C89.5015 8.89662 89.1549 8.98442 88.9632 9.15269C88.7715 9.32828 88.6756 9.66484 88.6756 10.1697H88.6683ZM93.5644 14.7936V10.1697C93.5644 9.66484 93.4759 9.32828 93.3063 9.15269C93.1293 8.9771 92.7754 8.89662 92.2371 8.89662H90.7624V4.93115H93.9035C95.7101 4.93115 97.0226 5.34087 97.8484 6.1603C98.6743 6.97973 99.0872 8.1284 99.0872 9.60631V14.7936H93.5717H93.5644ZM93.5644 29.5141V24.9853H99.0798V30.0775C99.0798 31.5554 98.6669 32.7041 97.8411 33.5235C97.0152 34.3429 95.7027 34.7526 93.8962 34.7526H90.755V30.7872H92.2297C92.768 30.7872 93.1219 30.6921 93.2989 30.5018C93.4759 30.3116 93.557 29.9824 93.557 29.5141H93.5644Z" fill="white"/>
<path d="M119.237 4.93848V9.08685H103.266V4.93848H119.237ZM108.494 6.21152H113.957V34.7014H108.494V6.21152Z" fill="white"/>
<path d="M129.413 10.3599V23.2367H123.949V9.60631C123.949 8.1284 124.362 6.97973 125.188 6.1603C126.013 5.34087 127.326 4.93115 129.132 4.93115H132.362V9.07953H130.792C130.253 9.07953 129.885 9.16733 129.7 9.3356C129.508 9.51119 129.413 9.84775 129.413 10.3526V10.3599ZM129.413 21.4003V29.28C129.413 29.7482 129.508 30.0848 129.7 30.2677C129.892 30.4579 130.253 30.553 130.792 30.553H132.31V34.7014H129.125C127.319 34.7014 126.006 34.2917 125.18 33.4723C124.354 32.6528 123.941 31.5042 123.941 30.0263V21.393H129.405L129.413 21.4003ZM134.641 29.28V21.6344H140.104V30.0336C140.104 31.5115 139.699 32.6602 138.895 33.4796C138.084 34.299 136.764 34.7087 134.928 34.7087H131.507V30.5604H133.313C133.852 30.5604 134.206 30.4652 134.382 30.275C134.559 30.0848 134.641 29.7556 134.641 29.2873V29.28ZM134.641 23.2367V10.3599C134.641 9.85506 134.552 9.51851 134.382 9.34292C134.206 9.16733 133.852 9.08684 133.313 9.08684H131.698V4.93847H134.928C136.764 4.93847 138.091 5.34819 138.895 6.16762C139.706 6.98705 140.104 8.13572 140.104 9.61362V23.244H134.641V23.2367Z" fill="white"/>
<path d="M146.902 4.93848H152.366V34.7014H146.902V4.93848ZM157.646 18.3347V10.3599C157.646 9.85507 157.557 9.51852 157.388 9.34293C157.211 9.16733 156.857 9.08685 156.318 9.08685H148.141V4.93848H157.933C159.769 4.93848 161.097 5.34819 161.9 6.16763C162.711 6.98706 163.11 8.13573 163.11 9.61363V19.0956C163.11 20.5735 162.704 21.7222 161.9 22.5416C161.089 23.3611 159.769 23.7708 157.933 23.7708H149.232V19.6224H156.318C156.857 19.6224 157.211 19.5273 157.388 19.3371C157.565 19.1468 157.646 18.8176 157.646 18.3494V18.3347Z" fill="white"/>
<path d="M174.429 4.93848V29.28C174.429 29.7483 174.525 30.0848 174.716 30.2677C174.908 30.4579 175.255 30.5531 175.763 30.5531H177.282V34.7014H174.141C172.305 34.7014 170.978 34.2917 170.174 33.4723C169.363 32.6528 168.965 31.5042 168.965 30.0263V4.93848H174.429ZM179.664 29.28V4.93848H185.128V30.0336C185.128 31.5115 184.715 32.6602 183.889 33.4796C183.063 34.299 181.751 34.7087 179.944 34.7087H176.523V30.5604H178.285C178.823 30.5604 179.192 30.4653 179.376 30.275C179.568 30.0848 179.664 29.7556 179.664 29.2873V29.28Z" fill="white"/>
<path d="M201.482 29.28V22.9148C201.482 22.4099 201.386 22.0734 201.194 21.8978C201.002 21.7222 200.656 21.6417 200.147 21.6417H196.298C194.521 21.6417 193.26 21.2247 192.515 20.3906C191.771 19.5566 191.395 18.4006 191.395 16.9227V9.61363C191.395 8.13573 191.793 6.98706 192.582 6.16763C193.371 5.34819 194.691 4.93848 196.527 4.93848H201.754C203.561 4.93848 204.866 5.34819 205.677 6.16763C206.488 6.98706 206.887 8.13573 206.887 9.61363V13.762H201.371V10.3672C201.371 9.86239 201.283 9.52583 201.113 9.35024C200.936 9.17465 200.582 9.09417 200.044 9.09417H198.237C197.699 9.09417 197.338 9.18196 197.146 9.35024C196.954 9.52583 196.858 9.86239 196.858 10.3672V16.3593C196.858 16.8276 196.954 17.1641 197.146 17.347C197.338 17.5372 197.699 17.6324 198.237 17.6324H201.99C203.797 17.6324 205.08 18.0348 205.839 18.8322C206.599 19.637 206.982 20.7711 206.982 22.249V30.0336C206.982 31.5115 206.577 32.6602 205.773 33.4796C204.962 34.299 203.642 34.7087 201.806 34.7087H196.674C194.838 34.7087 193.511 34.299 192.707 33.4796C191.896 32.6602 191.498 31.5115 191.498 30.0336V25.9291H196.962V29.28C196.962 29.7483 197.057 30.0848 197.249 30.2677C197.441 30.4579 197.802 30.5531 198.34 30.5531H200.147C200.656 30.5531 201.002 30.4579 201.194 30.2677C201.386 30.0775 201.482 29.7483 201.482 29.28Z" fill="white"/>
<path d="M62.2766 41.7471V48.2441C62.2766 48.405 62.3061 48.5148 62.3724 48.5806C62.4388 48.6465 62.5568 48.6757 62.7264 48.6757H63.154V50.0073H62.166C61.5613 50.0073 61.1189 49.8683 60.8387 49.5976C60.5585 49.3196 60.4258 48.9391 60.4258 48.4416V41.5642C60.4258 41.0667 60.5659 40.6789 60.8387 40.4082C61.1115 40.1375 61.5539 39.9985 62.166 39.9985H63.2351V41.3301H62.7264C62.5568 41.3301 62.4388 41.3594 62.3724 41.4179C62.3061 41.4764 62.2766 41.5862 62.2766 41.7618V41.7471ZM63.9283 43.0567V41.7398C63.9283 41.5715 63.8988 41.4545 63.8398 41.3959C63.7808 41.3374 63.6628 41.3081 63.4785 41.3081H62.9844V39.9766H64.0389C64.6582 39.9766 65.1007 40.1156 65.3735 40.3863C65.6463 40.6643 65.779 41.0448 65.779 41.5423V43.0494H63.9283V43.0567ZM63.9283 48.2441V45.6321H65.779V48.4343C65.779 48.9318 65.6463 49.3196 65.3735 49.5903C65.1007 49.8683 64.6582 50 64.0389 50H63.0139V48.6684H63.4785C63.6628 48.6684 63.7808 48.6391 63.8398 48.5733C63.8988 48.5074 63.9283 48.3977 63.9283 48.2367V48.2441ZM65.779 44.7395V46.0199H63.1245V44.7395H65.779Z" fill="white"/>
<path d="M67.9453 39.9839H69.7813V49.9853H67.9453V39.9839ZM71.5584 44.3152V41.813C71.5584 41.6447 71.5289 41.5276 71.4699 41.4691C71.4109 41.4106 71.2929 41.3813 71.1086 41.3813H68.3582V39.9839H71.6469C72.2663 39.9839 72.7087 40.1229 72.9815 40.3936C73.2543 40.6716 73.3871 41.0521 73.3871 41.5496V44.5127C73.3871 45.0102 73.2543 45.398 72.9815 45.6687C72.7087 45.9467 72.2663 46.0784 71.6469 46.0784H68.7269V44.7322H71.1086C71.2929 44.7322 71.4109 44.7029 71.4699 44.6371C71.5289 44.5712 71.5584 44.4615 71.5584 44.3079V44.3152ZM70.1058 45.376H71.9418L73.9032 49.9853H71.9197L70.0984 45.376H70.1058Z" fill="white"/>
<path d="M77.3868 41.8057V46.1296H75.5508V41.5496C75.5508 41.0521 75.6909 40.6643 75.9637 40.3936C76.2439 40.1156 76.6789 39.9839 77.291 39.9839H78.3749V41.3813H77.8514C77.667 41.3813 77.549 41.4106 77.4827 41.4691C77.4163 41.5276 77.3868 41.6374 77.3868 41.813V41.8057ZM77.3868 45.5151V48.1636C77.3868 48.3245 77.4163 48.4343 77.4827 48.4928C77.549 48.5513 77.667 48.5879 77.8514 48.5879H78.3601V49.9853H77.291C76.6863 49.9853 76.2439 49.8463 75.9637 49.5756C75.6835 49.2976 75.5508 48.9172 75.5508 48.4196V45.5224H77.3868V45.5151ZM79.1491 48.1636V45.5955H80.9852V48.4196C80.9852 48.9172 80.8524 49.3049 80.5796 49.5756C80.3068 49.8537 79.8644 49.9853 79.245 49.9853H78.0947V48.5879H78.6993C78.8837 48.5879 79.0016 48.5587 79.0606 48.4928C79.1196 48.427 79.1491 48.3172 79.1491 48.1636ZM79.1491 46.1369V41.813C79.1491 41.6447 79.1196 41.5276 79.0606 41.4691C79.0016 41.4106 78.8837 41.3813 78.6993 41.3813H78.1537V39.9839H79.2376C79.857 39.9839 80.2994 40.1229 80.5722 40.3936C80.845 40.6716 80.9778 41.0521 80.9778 41.5496V46.1296H79.1417L79.1491 46.1369Z" fill="white"/>
<path d="M85.0821 39.9839V48.1636C85.0821 48.3245 85.1116 48.4343 85.178 48.4928C85.2443 48.5587 85.3623 48.5879 85.5319 48.5879H86.0407V49.9853H84.9863C84.3669 49.9853 83.9245 49.8463 83.6516 49.5756C83.3788 49.2976 83.2461 48.9172 83.2461 48.4196V39.9912H85.0821V39.9839ZM86.837 48.1636V39.9839H88.6731V48.4123C88.6731 48.9098 88.533 49.2976 88.2602 49.5683C87.9873 49.839 87.5449 49.978 86.9329 49.978H85.7826V48.5806H86.3725C86.5569 48.5806 86.6748 48.5513 86.7412 48.4855C86.8076 48.4196 86.837 48.3099 86.837 48.1563V48.1636Z" fill="white"/>
<path d="M90.9766 39.9839H92.8126V49.9853H90.9766V39.9839ZM94.5896 44.4834V41.8057C94.5896 41.6374 94.5602 41.5203 94.5012 41.4618C94.4422 41.4033 94.3242 41.374 94.1399 41.374H91.3895V39.9766H94.6781C95.2975 39.9766 95.7399 40.1156 96.0128 40.3863C96.2856 40.6643 96.4183 41.0448 96.4183 41.5423V44.7249C96.4183 45.2224 96.2856 45.6102 96.0128 45.8809C95.7399 46.1589 95.2975 46.2906 94.6781 46.2906H91.7582V44.8932H94.1399C94.3242 44.8932 94.4422 44.8639 94.5012 44.798C94.5602 44.7322 94.5896 44.6225 94.5896 44.4688V44.4834Z" fill="white"/>
</g>
<defs>
<clipPath id="clip0_340_600">
<rect width="207" height="50" fill="white"/>
</clipPath>
</defs>
</svg>
