<svg width="207" height="50" viewBox="0 0 207 50" fill="none" xmlns="http://www.w3.org/2000/svg">
<g clip-path="url(#clip0_10_738)">
<path d="M30.9103 17.3837V35.3161C30.9103 36.3111 31.3158 37.2037 31.9721 37.8622C32.6283 38.5133 33.5353 38.9157 34.5381 38.9157H35.0616C37.0599 38.9157 38.6895 37.3061 38.6895 35.3161V32.5871L33.8892 33.8235C33.8155 33.8455 33.7344 33.8528 33.6533 33.8528C33.1592 33.8528 32.7316 33.4577 32.7316 32.9383C32.7316 32.6163 32.9011 32.3237 33.1666 32.1554L49.4845 24.3708V35.0966C49.4845 39.2157 47.8033 42.9397 45.0824 45.6395C42.3615 48.3392 38.6083 50.0073 34.457 50.0073C33.2551 50.0073 32.0679 49.861 30.9103 49.583L27.7396 48.4343L24.7459 46.9491L21.7448 48.4343C20.7347 48.9391 19.6729 49.3196 18.5742 49.583C17.4165 49.861 16.222 50.0073 15.0275 50.0073C10.8761 50.0073 7.12293 48.3392 4.40206 45.6395C1.68119 42.9397 0 39.2157 0 35.0966V24.3708L16.3178 32.1554C16.5907 32.3237 16.7529 32.6163 16.7529 32.9383C16.7529 33.4577 16.3252 33.8528 15.8312 33.8528C15.7575 33.8528 15.6763 33.8455 15.5952 33.8235L10.795 32.5871V35.3161C10.795 37.2988 12.4172 38.9157 14.4228 38.9157H14.9464C15.9492 38.9157 16.8561 38.5133 17.5124 37.8622C18.1686 37.211 18.5742 36.3111 18.5742 35.3161V17.3837H0V5.1434H15.6837C16.4948 5.1434 17.2469 5.59701 17.6082 6.32133L18.5668 8.20896V0H30.9029V8.20164L31.8615 6.31402C32.2301 5.5897 32.9749 5.13608 33.786 5.13608H49.4697V17.3764H30.8955L30.9103 17.3837Z" fill="#00293A"/>
<path d="M65.898 10.3599V23.2367H60.4341V9.60631C60.4341 8.1284 60.8471 6.97973 61.6729 6.1603C62.4988 5.34087 63.8113 4.93115 65.6178 4.93115H68.8475V9.07953H67.2769C66.7386 9.07953 66.3699 9.16733 66.1856 9.3356C65.9939 9.51119 65.898 9.84775 65.898 10.3526V10.3599ZM65.898 21.4003V29.28C65.898 29.7482 65.9939 30.0848 66.1856 30.2677C66.3773 30.4579 66.7386 30.553 67.2769 30.553H68.7958V34.7014H65.6104C63.8039 34.7014 62.4914 34.2917 61.6655 33.4723C60.8397 32.6528 60.4268 31.5042 60.4268 30.0263V21.393H65.8906L65.898 21.4003ZM71.1259 29.28V21.6344H76.5898V30.0336C76.5898 31.5115 76.1842 32.6602 75.3805 33.4796C74.5694 34.299 73.2495 34.7087 71.4135 34.7087H67.9921V30.5604H69.7986C70.3369 30.5604 70.6909 30.4652 70.8678 30.275C71.0448 30.0848 71.1259 29.7556 71.1259 29.2873V29.28ZM71.1259 23.2367V10.3599C71.1259 9.85506 71.0374 9.51851 70.8678 9.34292C70.6909 9.16733 70.3369 9.08684 69.7986 9.08684H68.1838V4.93847H71.4135C73.2495 4.93847 74.5768 5.34819 75.3805 6.16762C76.1916 6.98705 76.5898 8.13572 76.5898 9.61362V23.244H71.1259V23.2367Z" fill="#00293A"/>
<path d="M88.6683 10.1697V29.5141C88.6683 29.9824 88.7641 30.3189 88.9558 30.5018C89.1475 30.6921 89.4941 30.7872 90.0029 30.7872H91.3375V34.7526H88.3438C86.5373 34.7526 85.2248 34.3429 84.3989 33.5235C83.5731 32.7041 83.1602 31.5554 83.1602 30.0775V9.60631C83.1602 8.1284 83.5731 6.97973 84.3989 6.1603C85.2248 5.34087 86.5373 4.93115 88.3438 4.93115H91.5292V8.89662H90.0103C89.5015 8.89662 89.1549 8.98442 88.9632 9.15269C88.7715 9.32828 88.6756 9.66484 88.6756 10.1697H88.6683ZM93.5644 14.7936V10.1697C93.5644 9.66484 93.4759 9.32828 93.3063 9.15269C93.1293 8.9771 92.7754 8.89662 92.2371 8.89662H90.7624V4.93115H93.9035C95.7101 4.93115 97.0226 5.34087 97.8484 6.1603C98.6743 6.97973 99.0872 8.1284 99.0872 9.60631V14.7936H93.5717H93.5644ZM93.5644 29.5141V24.9853H99.0798V30.0775C99.0798 31.5554 98.6669 32.7041 97.8411 33.5235C97.0152 34.3429 95.7027 34.7526 93.8962 34.7526H90.755V30.7872H92.2297C92.768 30.7872 93.1219 30.6921 93.2989 30.5018C93.4759 30.3116 93.557 29.9824 93.557 29.5141H93.5644Z" fill="#00293A"/>
<path d="M119.239 4.93848V9.08685H103.268V4.93848H119.239ZM108.495 6.21152H113.959V34.7014H108.495V6.21152Z" fill="#00293A"/>
<path d="M129.415 10.3599V23.2367H123.951V9.60631C123.951 8.1284 124.364 6.97973 125.19 6.1603C126.015 5.34087 127.328 4.93115 129.134 4.93115H132.364V9.07953H130.793C130.255 9.07953 129.887 9.16733 129.702 9.3356C129.51 9.51119 129.415 9.84775 129.415 10.3526V10.3599ZM129.415 21.4003V29.28C129.415 29.7482 129.51 30.0848 129.702 30.2677C129.894 30.4579 130.255 30.553 130.793 30.553H132.312V34.7014H129.127C127.32 34.7014 126.008 34.2917 125.182 33.4723C124.356 32.6528 123.943 31.5042 123.943 30.0263V21.393H129.407L129.415 21.4003ZM134.643 29.28V21.6344H140.106V30.0336C140.106 31.5115 139.701 32.6602 138.897 33.4796C138.086 34.299 136.766 34.7087 134.93 34.7087H131.509V30.5604H133.315C133.854 30.5604 134.207 30.4652 134.384 30.275C134.561 30.0848 134.643 29.7556 134.643 29.2873V29.28ZM134.643 23.2367V10.3599C134.643 9.85506 134.554 9.51851 134.384 9.34292C134.207 9.16733 133.854 9.08684 133.315 9.08684H131.7V4.93847H134.93C136.766 4.93847 138.093 5.34819 138.897 6.16762C139.708 6.98705 140.106 8.13572 140.106 9.61362V23.244H134.643V23.2367Z" fill="#00293A"/>
<path d="M146.904 4.93848H152.368V34.7014H146.904V4.93848ZM157.648 18.3347V10.3599C157.648 9.85507 157.559 9.51852 157.39 9.34293C157.213 9.16733 156.859 9.08685 156.32 9.08685H148.143V4.93848H157.935C159.771 4.93848 161.099 5.34819 161.902 6.16763C162.713 6.98706 163.112 8.13573 163.112 9.61363V19.0956C163.112 20.5735 162.706 21.7222 161.902 22.5416C161.091 23.3611 159.771 23.7708 157.935 23.7708H149.234V19.6224H156.32C156.859 19.6224 157.213 19.5273 157.39 19.3371C157.567 19.1468 157.648 18.8176 157.648 18.3494V18.3347Z" fill="#00293A"/>
<path d="M174.431 4.93848V29.28C174.431 29.7483 174.527 30.0848 174.718 30.2677C174.91 30.4579 175.257 30.5531 175.765 30.5531H177.284V34.7014H174.143C172.307 34.7014 170.98 34.2917 170.176 33.4723C169.365 32.6528 168.967 31.5042 168.967 30.0263V4.93848H174.431ZM179.666 29.28V4.93848H185.13V30.0336C185.13 31.5115 184.717 32.6602 183.891 33.4796C183.065 34.299 181.753 34.7087 179.946 34.7087H176.525V30.5604H178.287C178.825 30.5604 179.194 30.4653 179.378 30.275C179.57 30.0848 179.666 29.7556 179.666 29.2873V29.28Z" fill="#00293A"/>
<path d="M201.485 29.28V22.9148C201.485 22.4099 201.389 22.0734 201.197 21.8978C201.005 21.7222 200.659 21.6417 200.15 21.6417H196.301C194.524 21.6417 193.263 21.2247 192.518 20.3906C191.774 19.5566 191.397 18.4006 191.397 16.9227V9.61363C191.397 8.13573 191.796 6.98706 192.585 6.16763C193.374 5.34819 194.693 4.93848 196.53 4.93848H201.757C203.564 4.93848 204.869 5.34819 205.68 6.16763C206.491 6.98706 206.889 8.13573 206.889 9.61363V13.762H201.374V10.3672C201.374 9.86239 201.285 9.52583 201.116 9.35024C200.939 9.17465 200.585 9.09417 200.047 9.09417H198.24C197.702 9.09417 197.341 9.18196 197.149 9.35024C196.957 9.52583 196.861 9.86239 196.861 10.3672V16.3593C196.861 16.8276 196.957 17.1641 197.149 17.347C197.341 17.5372 197.702 17.6324 198.24 17.6324H201.993C203.8 17.6324 205.083 18.0348 205.842 18.8322C206.602 19.637 206.985 20.7711 206.985 22.249V30.0336C206.985 31.5115 206.58 32.6602 205.776 33.4796C204.965 34.299 203.645 34.7087 201.809 34.7087H196.677C194.841 34.7087 193.514 34.299 192.71 33.4796C191.899 32.6602 191.501 31.5115 191.501 30.0336V25.9291H196.965V29.28C196.965 29.7483 197.06 30.0848 197.252 30.2677C197.444 30.4579 197.805 30.5531 198.343 30.5531H200.15C200.659 30.5531 201.005 30.4579 201.197 30.2677C201.389 30.0775 201.485 29.7483 201.485 29.28Z" fill="#00293A"/>
<path d="M62.2775 41.7471V48.2441C62.2775 48.405 62.307 48.5148 62.3734 48.5806C62.4398 48.6465 62.5577 48.6757 62.7273 48.6757H63.155V50.0073H62.1669C61.5623 50.0073 61.1199 49.8683 60.8397 49.5976C60.5595 49.3196 60.4268 48.9391 60.4268 48.4416V41.5642C60.4268 41.0667 60.5669 40.6789 60.8397 40.4082C61.1125 40.1375 61.5549 39.9985 62.1669 39.9985H63.2361V41.3301H62.7273C62.5577 41.3301 62.4398 41.3594 62.3734 41.4179C62.307 41.4764 62.2775 41.5862 62.2775 41.7618V41.7471ZM63.9292 43.0567V41.7398C63.9292 41.5715 63.8997 41.4545 63.8408 41.3959C63.7818 41.3374 63.6638 41.3081 63.4794 41.3081H62.9854V39.9766H64.0398C64.6592 39.9766 65.1016 40.1156 65.3745 40.3863C65.6473 40.6643 65.78 41.0448 65.78 41.5423V43.0494H63.9292V43.0567ZM63.9292 48.2441V45.6321H65.78V48.4343C65.78 48.9318 65.6473 49.3196 65.3745 49.5903C65.1016 49.8683 64.6592 50 64.0398 50H63.0149V48.6684H63.4794C63.6638 48.6684 63.7818 48.6391 63.8408 48.5733C63.8997 48.5074 63.9292 48.3977 63.9292 48.2367V48.2441ZM65.78 44.7395V46.0199H63.1255V44.7395H65.78Z" fill="#00293A"/>
<path d="M67.9482 39.9839H69.7843V49.9853H67.9482V39.9839ZM71.5613 44.3152V41.813C71.5613 41.6447 71.5318 41.5276 71.4728 41.4691C71.4138 41.4106 71.2959 41.3813 71.1115 41.3813H68.3612V39.9839H71.6498C72.2692 39.9839 72.7116 40.1229 72.9844 40.3936C73.2573 40.6716 73.39 41.0521 73.39 41.5496V44.5127C73.39 45.0102 73.2573 45.398 72.9844 45.6687C72.7116 45.9467 72.2692 46.0784 71.6498 46.0784H68.7298V44.7322H71.1115C71.2959 44.7322 71.4138 44.7029 71.4728 44.6371C71.5318 44.5712 71.5613 44.4615 71.5613 44.3079V44.3152ZM70.1087 45.376H71.9447L73.9061 49.9853H71.9226L70.1013 45.376H70.1087Z" fill="#00293A"/>
<path d="M77.3858 41.8057V46.1296H75.5498V41.5496C75.5498 41.0521 75.6899 40.6643 75.9627 40.3936C76.2429 40.1156 76.678 39.9839 77.29 39.9839H78.3739V41.3813H77.8504C77.666 41.3813 77.5481 41.4106 77.4817 41.4691C77.4153 41.5276 77.3858 41.6374 77.3858 41.813V41.8057ZM77.3858 45.5151V48.1636C77.3858 48.3245 77.4153 48.4343 77.4817 48.4928C77.5481 48.5513 77.666 48.5879 77.8504 48.5879H78.3592V49.9853H77.29C76.6853 49.9853 76.2429 49.8463 75.9627 49.5756C75.6825 49.2976 75.5498 48.9172 75.5498 48.4196V45.5224H77.3858V45.5151ZM79.1481 48.1636V45.5955H80.9842V48.4196C80.9842 48.9172 80.8514 49.3049 80.5786 49.5756C80.3058 49.8537 79.8634 49.9853 79.244 49.9853H78.0937V48.5879H78.6983C78.8827 48.5879 79.0007 48.5587 79.0597 48.4928C79.1186 48.427 79.1481 48.3172 79.1481 48.1636ZM79.1481 46.1369V41.813C79.1481 41.6447 79.1186 41.5276 79.0597 41.4691C79.0007 41.4106 78.8827 41.3813 78.6983 41.3813H78.1527V39.9839H79.2366C79.856 39.9839 80.2984 40.1229 80.5712 40.3936C80.8441 40.6716 80.9768 41.0521 80.9768 41.5496V46.1296H79.1408L79.1481 46.1369Z" fill="#00293A"/>
<path d="M85.0841 39.9839V48.1636C85.0841 48.3245 85.1136 48.4343 85.1799 48.4928C85.2463 48.5587 85.3643 48.5879 85.5339 48.5879H86.0427V49.9853H84.9882C84.3688 49.9853 83.9264 49.8463 83.6536 49.5756C83.3808 49.2976 83.248 48.9172 83.248 48.4196V39.9912H85.0841V39.9839ZM86.839 48.1636V39.9839H88.675V48.4123C88.675 48.9098 88.5349 49.2976 88.2621 49.5683C87.9893 49.839 87.5469 49.978 86.9349 49.978H85.7846V48.5806H86.3745C86.5588 48.5806 86.6768 48.5513 86.7431 48.4855C86.8095 48.4196 86.839 48.3099 86.839 48.1563V48.1636Z" fill="#00293A"/>
<path d="M90.9756 39.9839H92.8116V49.9853H90.9756V39.9839ZM94.5887 44.4834V41.8057C94.5887 41.6374 94.5592 41.5203 94.5002 41.4618C94.4412 41.4033 94.3232 41.374 94.1389 41.374H91.3885V39.9766H94.6771C95.2965 39.9766 95.739 40.1156 96.0118 40.3863C96.2846 40.6643 96.4173 41.0448 96.4173 41.5423V44.7249C96.4173 45.2224 96.2846 45.6102 96.0118 45.8809C95.739 46.1589 95.2965 46.2906 94.6771 46.2906H91.7572V44.8932H94.1389C94.3232 44.8932 94.4412 44.8639 94.5002 44.798C94.5592 44.7322 94.5887 44.6225 94.5887 44.4688V44.4834Z" fill="#00293A"/>
</g>
<defs>
<clipPath id="clip0_10_738">
<rect width="207" height="50" fill="white"/>
</clipPath>
</defs>
</svg>
