<svg width="462" height="163" viewBox="0 0 462 163" fill="none" xmlns="http://www.w3.org/2000/svg">
<g clip-path="url(#clip0_2073_773)">
<path d="M42.5594 12.18C40.3594 9.94001 36.7494 8.82001 31.7494 8.82001H15.9594C11.0394 8.82001 7.45937 9.94001 5.21937 12.18C2.97937 14.42 1.85938 17.57 1.85938 21.63V77.67C1.85938 81.72 2.97937 84.87 5.21937 87.11C7.45937 89.36 11.0394 90.48 15.9594 90.48H31.7494C36.7494 90.48 40.3594 89.36 42.5594 87.11C44.7594 84.87 45.8594 81.72 45.8594 77.67V21.63C45.8594 17.57 44.7594 14.42 42.5594 12.18ZM30.9794 75.6C30.9794 76.89 30.7394 77.8 30.2594 78.31C29.7894 78.83 28.8194 79.09 27.3494 79.09H20.4894C19.0194 79.09 18.0294 78.83 17.5194 78.31C16.9994 77.8 16.7394 76.89 16.7394 75.6V23.7C16.7394 22.32 16.9994 21.39 17.5194 20.92C18.0294 20.44 19.0194 20.2 20.4894 20.2H27.3494C28.8194 20.2 29.7894 20.44 30.2594 20.92C30.7394 21.39 30.9794 22.32 30.9794 23.7V75.6Z" fill="#00293A"/>
<path d="M92.0607 35.86V23.18C92.0607 21.8 91.8207 20.87 91.3507 20.4C90.8707 19.93 89.9007 19.69 88.4407 19.69H82.3507C80.9707 19.69 80.0207 19.93 79.5107 20.4C78.9907 20.87 78.7307 21.8 78.7307 23.18V76.24C78.7307 77.54 78.9907 78.44 79.5107 78.96C80.0207 79.48 80.9707 79.74 82.3507 79.74H88.4407C89.9007 79.74 90.8707 79.48 91.3507 78.96C91.8207 78.44 92.0607 77.54 92.0607 76.24V63.82H107.071V77.8C107.071 81.85 105.951 85 103.711 87.24C101.471 89.48 97.8807 90.61 92.9707 90.61H77.8207C72.9107 90.61 69.3207 89.49 67.0807 87.24C64.8407 85 63.7207 81.85 63.7207 77.8V21.63C63.7207 17.57 64.8407 14.42 67.0807 12.18C69.3207 9.94001 72.9107 8.82001 77.8207 8.82001H92.9707C97.8807 8.82001 101.461 9.94001 103.711 12.18C105.951 14.42 107.071 17.57 107.071 21.63V35.86H92.0607Z" fill="#00293A"/>
<path d="M276.081 12.18C273.881 9.94001 270.281 8.82001 265.281 8.82001H249.491C244.571 8.82001 240.991 9.94001 238.741 12.18C236.501 14.42 235.381 17.57 235.381 21.63V77.67C235.381 81.72 236.501 84.87 238.741 87.11C240.981 89.35 244.571 90.48 249.491 90.48H265.281C270.281 90.48 273.881 89.36 276.081 87.11C278.281 84.87 279.381 81.72 279.381 77.67V21.63C279.381 17.57 278.281 14.42 276.081 12.18ZM264.501 75.6C264.501 76.89 264.261 77.8 263.791 78.31C263.311 78.83 262.341 79.09 260.871 79.09H254.021C252.551 79.09 251.561 78.83 251.041 78.31C250.521 77.8 250.261 76.89 250.261 75.6V23.7C250.261 22.32 250.521 21.39 251.041 20.92C251.561 20.44 252.551 20.2 254.021 20.2H260.871C262.341 20.2 263.311 20.44 263.791 20.92C264.271 21.4 264.501 22.32 264.501 23.7V75.6Z" fill="#00293A"/>
<path d="M338.721 12.18C336.521 9.94001 332.921 8.82001 327.911 8.82001H297.891V90.48H312.771V60.45H327.911C332.921 60.45 336.521 59.33 338.721 57.09C340.921 54.85 342.021 51.7 342.021 47.64V21.63C342.021 17.57 340.921 14.42 338.721 12.18ZM327.141 45.57C327.141 46.87 326.901 47.77 326.421 48.29C325.951 48.81 324.981 49.07 323.511 49.07H312.771V20.2H323.511C324.981 20.2 325.951 20.44 326.421 20.92C326.901 21.39 327.141 22.32 327.141 23.7V45.57Z" fill="#00293A"/>
<path d="M401.939 8.82001V77.67C401.939 81.72 400.819 84.87 398.579 87.11C396.339 89.35 392.749 90.48 387.839 90.48H372.049C367.039 90.48 363.439 89.36 361.239 87.11C359.039 84.87 357.939 81.72 357.939 77.67V8.82001H372.819V75.6C372.819 76.89 373.079 77.8 373.599 78.31C374.119 78.83 375.059 79.09 376.449 79.09H383.309C384.769 79.09 385.759 78.83 386.279 78.31C386.799 77.8 387.059 76.89 387.059 75.6V8.82001H401.939Z" fill="#00293A"/>
<path d="M446.46 75.59V58.12C446.46 56.74 446.2 55.81 445.68 55.34C445.16 54.87 444.21 54.63 442.83 54.63H432.35C427.52 54.63 424.09 53.49 422.06 51.2C420.03 48.91 419.02 45.74 419.02 41.69V21.63C419.02 17.58 420.1 14.43 422.26 12.18C424.42 9.94 428 8.81 433 8.81H447.24C452.16 8.81 455.72 9.93 457.92 12.18C460.12 14.42 461.22 17.57 461.22 21.63V33.02H446.21V23.7C446.21 22.32 445.97 21.39 445.5 20.92C445.02 20.45 444.05 20.21 442.59 20.21H437.67C436.2 20.21 435.21 20.45 434.69 20.92C434.17 21.4 433.91 22.32 433.91 23.7V40.14C433.91 41.43 434.17 42.34 434.69 42.86C435.21 43.38 436.2 43.64 437.67 43.64H447.89C452.81 43.64 456.3 44.74 458.37 46.94C460.44 49.14 461.48 52.27 461.48 56.32V77.67C461.48 81.73 460.38 84.87 458.18 87.12C455.98 89.36 452.38 90.49 447.37 90.49H433.39C428.39 90.49 424.78 89.37 422.58 87.12C420.38 84.88 419.28 81.73 419.28 77.67V66.41H434.16V75.6C434.16 76.89 434.42 77.8 434.94 78.32C435.46 78.84 436.45 79.1 437.92 79.1H442.84C444.22 79.1 445.17 78.84 445.69 78.32C446.21 77.8 446.47 76.9 446.47 75.6L446.46 75.59Z" fill="#00293A"/>
<path d="M182.13 31.5V64C182.13 65.8 182.86 67.43 184.04 68.61C185.22 69.79 186.85 70.52 188.65 70.52H189.59C193.19 70.52 196.11 67.6 196.11 64V59.05L187.48 61.28C187.34 61.32 187.2 61.34 187.06 61.34C186.17 61.34 185.4 60.62 185.4 59.68C185.4 59.1 185.7 58.57 186.19 58.27L215.53 44.16V63.59C215.53 71.05 212.51 77.8 207.62 82.69C202.73 87.58 195.97 90.6 188.52 90.6C186.36 90.6 184.22 90.34 182.14 89.83L176.44 87.74L171.06 85.04L165.67 87.74C163.85 88.65 161.94 89.34 159.97 89.83C157.88 90.33 155.74 90.6 153.59 90.6C146.13 90.6 139.38 87.58 134.49 82.69C129.6 77.8 126.58 71.04 126.58 63.59V44.16L155.92 58.27C156.41 58.58 156.71 59.11 156.71 59.68C156.71 60.62 155.94 61.34 155.05 61.34C154.91 61.34 154.77 61.32 154.63 61.28L146 59.05V64C146 67.6 148.92 70.52 152.52 70.52H153.46C155.26 70.52 156.89 69.79 158.07 68.61C159.25 67.43 159.98 65.8 159.98 64V31.5H126.59V9.32H154.79C156.25 9.32 157.6 10.14 158.26 11.45L159.98 14.87V0H182.16V14.86L183.88 11.44C184.54 10.13 185.88 9.31 187.35 9.31H215.55V31.49H182.16L182.13 31.5Z" fill="#C71539"/>
<path d="M313.601 131.31V125.35C313.601 124.59 313.471 124.07 313.211 123.81C312.951 123.55 312.411 123.42 311.591 123.42H308.221C307.461 123.42 306.931 123.55 306.641 123.81C306.361 124.07 306.211 124.59 306.211 125.35V154.78C306.211 155.49 306.361 156 306.641 156.28C306.931 156.57 307.461 156.71 308.221 156.71H311.591C312.411 156.71 312.951 156.57 313.211 156.28C313.471 156 313.601 155.49 313.601 154.78V144.73H310.021V138.92H321.931V155.64C321.931 157.89 321.321 159.63 320.101 160.88C318.881 162.12 316.881 162.74 314.111 162.74H305.711C302.981 162.74 301.001 162.12 299.751 160.88C298.511 159.63 297.891 157.89 297.891 155.64V124.49C297.891 122.24 298.511 120.5 299.751 119.25C301.001 118.01 302.981 117.39 305.711 117.39H314.111C316.881 117.39 318.881 118.01 320.101 119.25C321.321 120.5 321.931 122.24 321.931 124.49V131.31H313.601Z" fill="#00293A"/>
<path d="M350.901 144.8C352.381 144.52 353.531 143.97 354.331 143.15C355.551 141.91 356.161 140.16 356.161 137.91V124.49C356.161 122.24 355.551 120.5 354.331 119.25C353.111 118.01 351.111 117.39 348.341 117.39H331.691V162.67H339.941V145.02H342.651L349.561 162.67H358.461L350.901 144.8ZM339.941 123.7H345.901C346.711 123.7 347.251 123.83 347.511 124.1C347.771 124.36 347.911 124.87 347.911 125.64V136.98C347.911 137.7 347.771 138.2 347.511 138.49C347.251 138.77 346.711 138.92 345.901 138.92H339.941V123.7Z" fill="#00293A"/>
<path d="M388.422 119.25C387.202 118.01 385.202 117.39 382.432 117.39H373.672C370.942 117.39 368.962 118.01 367.712 119.25C366.472 120.5 365.852 122.24 365.852 124.49V155.57C365.852 157.81 366.472 159.56 367.712 160.8C368.952 162.04 370.942 162.67 373.672 162.67H382.432C385.202 162.67 387.202 162.05 388.422 160.8C389.642 159.56 390.252 157.81 390.252 155.57V124.49C390.252 122.24 389.642 120.5 388.422 119.25ZM382.002 154.42C382.002 155.13 381.862 155.64 381.602 155.92C381.342 156.21 380.802 156.36 379.992 156.36H376.182C375.372 156.36 374.822 156.21 374.532 155.92C374.242 155.64 374.102 155.13 374.102 154.42V125.64C374.102 124.87 374.242 124.36 374.532 124.1C374.822 123.83 375.372 123.7 376.182 123.7H379.992C380.802 123.7 381.342 123.83 381.602 124.1C381.862 124.36 382.002 124.87 382.002 125.64V154.42Z" fill="#00293A"/>
<path d="M424.841 117.39V155.57C424.841 157.81 424.211 159.56 422.971 160.8C421.731 162.05 419.741 162.67 417.021 162.67H408.261C405.481 162.67 403.491 162.05 402.271 160.8C401.051 159.56 400.441 157.81 400.441 155.57V117.39H408.691V154.42C408.691 155.13 408.831 155.64 409.121 155.92C409.411 156.21 409.931 156.36 410.701 156.36H414.501C415.321 156.36 415.871 156.21 416.151 155.92C416.441 155.64 416.581 155.13 416.581 154.42V117.39H424.841Z" fill="#00293A"/>
<path d="M457.81 119.25C456.59 118.01 454.6 117.39 451.82 117.39H435.17V162.67H443.43V146.02H451.82C454.6 146.02 456.59 145.4 457.81 144.15C459.03 142.91 459.64 141.17 459.64 138.92V124.49C459.64 122.24 459.03 120.5 457.81 119.25ZM451.39 137.77C451.39 138.49 451.26 138.99 451 139.27C450.73 139.56 450.19 139.71 449.38 139.71H443.43V123.7H449.38C450.19 123.7 450.73 123.83 451 124.1C451.26 124.36 451.39 124.87 451.39 125.64V137.77Z" fill="#00293A"/>
<path d="M280.83 142.34H0V144.2H280.83V142.34Z" fill="#00293A"/>
</g>
<defs>
<clipPath id="clip0_2073_773">
<rect width="461.47" height="162.74" fill="white"/>
</clipPath>
</defs>
</svg>
