<svg width="462" height="163" viewBox="0 0 462 163" fill="none" xmlns="http://www.w3.org/2000/svg">
<g clip-path="url(#clip0_2670_124)">
<mask id="mask0_2670_124" style="mask-type:luminance" maskUnits="userSpaceOnUse" x="0" y="0" width="462" height="163">
<path d="M461.47 0H0V162.74H461.47V0Z" fill="white"/>
</mask>
<g mask="url(#mask0_2670_124)">
<path d="M42.5594 12.1798C40.3594 9.93982 36.7494 8.81982 31.7494 8.81982H15.9594C11.0394 8.81982 7.45936 9.93982 5.21936 12.1798C2.97936 14.4198 1.85938 17.5698 1.85938 21.6298V77.6698C1.85938 81.7198 2.97936 84.8698 5.21936 87.1098C7.45936 89.3598 11.0394 90.4798 15.9594 90.4798H31.7494C36.7494 90.4798 40.3594 89.3598 42.5594 87.1098C44.7594 84.8698 45.8594 81.7198 45.8594 77.6698V21.6298C45.8594 17.5698 44.7594 14.4198 42.5594 12.1798ZM30.9794 75.5998C30.9794 76.8898 30.7394 77.7998 30.2594 78.3098C29.7894 78.8298 28.8194 79.0898 27.3494 79.0898H20.4894C19.0194 79.0898 18.0294 78.8298 17.5194 78.3098C16.9994 77.7998 16.7394 76.8898 16.7394 75.5998V23.6998C16.7394 22.3198 16.9994 21.3898 17.5194 20.9198C18.0294 20.4398 19.0194 20.1998 20.4894 20.1998H27.3494C28.8194 20.1998 29.7894 20.4398 30.2594 20.9198C30.7394 21.3898 30.9794 22.3198 30.9794 23.6998V75.5998Z" fill="white"/>
<path d="M92.0588 35.8598V23.1798C92.0588 21.7998 91.8188 20.8698 91.3488 20.3998C90.8688 19.9298 89.8987 19.6898 88.4387 19.6898H82.3488C80.9688 19.6898 80.0187 19.9298 79.5087 20.3998C78.9887 20.8698 78.7287 21.7998 78.7287 23.1798V76.2398C78.7287 77.5398 78.9887 78.4398 79.5087 78.9598C80.0187 79.4798 80.9688 79.7398 82.3488 79.7398H88.4387C89.8987 79.7398 90.8688 79.4798 91.3488 78.9598C91.8188 78.4398 92.0588 77.5398 92.0588 76.2398V63.8198H107.069V77.7998C107.069 81.8498 105.949 84.9998 103.709 87.2398C101.469 89.4798 97.8788 90.6098 92.9688 90.6098H77.8188C72.9088 90.6098 69.3188 89.4898 67.0788 87.2398C64.8388 84.9998 63.7188 81.8498 63.7188 77.7998V21.6298C63.7188 17.5698 64.8388 14.4198 67.0788 12.1798C69.3188 9.93982 72.9088 8.81982 77.8188 8.81982H92.9688C97.8788 8.81982 101.459 9.93982 103.709 12.1798C105.949 14.4198 107.069 17.5698 107.069 21.6298V35.8598H92.0588Z" fill="white"/>
<path d="M276.083 12.1798C273.883 9.93982 270.283 8.81982 265.283 8.81982H249.493C244.573 8.81982 240.993 9.93982 238.743 12.1798C236.503 14.4198 235.383 17.5698 235.383 21.6298V77.6698C235.383 81.7198 236.503 84.8698 238.743 87.1098C240.983 89.3498 244.573 90.4798 249.493 90.4798H265.283C270.283 90.4798 273.883 89.3598 276.083 87.1098C278.283 84.8698 279.383 81.7198 279.383 77.6698V21.6298C279.383 17.5698 278.283 14.4198 276.083 12.1798ZM264.503 75.5998C264.503 76.8898 264.263 77.7998 263.793 78.3098C263.313 78.8298 262.343 79.0898 260.873 79.0898H254.023C252.553 79.0898 251.563 78.8298 251.043 78.3098C250.523 77.7998 250.263 76.8898 250.263 75.5998V23.6998C250.263 22.3198 250.523 21.3898 251.043 20.9198C251.563 20.4398 252.553 20.1998 254.023 20.1998H260.873C262.343 20.1998 263.313 20.4398 263.793 20.9198C264.273 21.3998 264.503 22.3198 264.503 23.6998V75.5998Z" fill="white"/>
<path d="M338.721 12.1798C336.521 9.93982 332.921 8.81982 327.911 8.81982H297.891V90.4798H312.771V60.4498H327.911C332.921 60.4498 336.521 59.3298 338.721 57.0898C340.921 54.8498 342.021 51.6998 342.021 47.6398V21.6298C342.021 17.5698 340.921 14.4198 338.721 12.1798ZM327.141 45.5698C327.141 46.8698 326.901 47.7698 326.421 48.2898C325.951 48.8098 324.981 49.0698 323.511 49.0698H312.771V20.1998H323.511C324.981 20.1998 325.951 20.4398 326.421 20.9198C326.901 21.3898 327.141 22.3198 327.141 23.6998V45.5698Z" fill="white"/>
<path d="M401.938 8.81982V77.6698C401.938 81.7198 400.818 84.8698 398.578 87.1098C396.338 89.3498 392.747 90.4798 387.837 90.4798H372.048C367.038 90.4798 363.438 89.3598 361.238 87.1098C359.038 84.8698 357.938 81.7198 357.938 77.6698V8.81982H372.818V75.5998C372.818 76.8898 373.078 77.7998 373.598 78.3098C374.118 78.8298 375.058 79.0898 376.448 79.0898H383.307C384.767 79.0898 385.757 78.8298 386.277 78.3098C386.797 77.7998 387.057 76.8898 387.057 75.5998V8.81982H401.938Z" fill="white"/>
<path d="M446.463 75.5901V58.1201C446.463 56.7401 446.203 55.8101 445.683 55.3401C445.163 54.8701 444.213 54.6301 442.833 54.6301H432.353C427.523 54.6301 424.093 53.4901 422.063 51.2001C420.033 48.9101 419.023 45.7401 419.023 41.6901V21.6301C419.023 17.5801 420.103 14.4301 422.263 12.1801C424.423 9.94006 428.003 8.81006 433.003 8.81006H447.243C452.163 8.81006 455.723 9.93006 457.923 12.1801C460.123 14.4201 461.223 17.5701 461.223 21.6301V33.0201H446.213V23.7001C446.213 22.3201 445.973 21.3901 445.503 20.9201C445.023 20.4501 444.053 20.2101 442.593 20.2101H437.673C436.203 20.2101 435.213 20.4501 434.693 20.9201C434.173 21.4001 433.913 22.3201 433.913 23.7001V40.1401C433.913 41.4301 434.173 42.3401 434.693 42.8601C435.213 43.3801 436.203 43.6401 437.673 43.6401H447.893C452.813 43.6401 456.303 44.7401 458.373 46.9401C460.443 49.1401 461.483 52.2701 461.483 56.3201V77.6701C461.483 81.7301 460.383 84.8701 458.183 87.1201C455.983 89.3601 452.383 90.4901 447.373 90.4901H433.393C428.393 90.4901 424.783 89.3701 422.583 87.1201C420.383 84.8801 419.283 81.7301 419.283 77.6701V66.4101H434.163V75.6001C434.163 76.8901 434.423 77.8001 434.943 78.3201C435.463 78.8401 436.453 79.1001 437.923 79.1001H442.843C444.223 79.1001 445.173 78.8401 445.693 78.3201C446.213 77.8001 446.473 76.9001 446.473 75.6001L446.463 75.5901Z" fill="white"/>
<path d="M182.128 31.5V64C182.128 65.8 182.858 67.43 184.038 68.61C185.218 69.79 186.848 70.52 188.648 70.52H189.588C193.188 70.52 196.108 67.6 196.108 64V59.05L187.478 61.28C187.338 61.32 187.198 61.34 187.058 61.34C186.168 61.34 185.398 60.62 185.398 59.68C185.398 59.1 185.698 58.57 186.188 58.27L215.528 44.16V63.59C215.528 71.05 212.508 77.8 207.618 82.69C202.728 87.58 195.968 90.6 188.518 90.6C186.358 90.6 184.218 90.34 182.138 89.83L176.438 87.74L171.058 85.04L165.668 87.74C163.848 88.65 161.938 89.34 159.968 89.83C157.878 90.33 155.738 90.6 153.588 90.6C146.128 90.6 139.378 87.58 134.488 82.69C129.598 77.8 126.578 71.04 126.578 63.59V44.16L155.918 58.27C156.408 58.58 156.708 59.11 156.708 59.68C156.708 60.62 155.938 61.34 155.048 61.34C154.908 61.34 154.768 61.32 154.628 61.28L145.998 59.05V64C145.998 67.6 148.918 70.52 152.518 70.52H153.458C155.258 70.52 156.888 69.79 158.068 68.61C159.248 67.43 159.978 65.8 159.978 64V31.5H126.588V9.32H154.788C156.248 9.32 157.598 10.14 158.258 11.45L159.978 14.87V0H182.158V14.86L183.878 11.44C184.538 10.13 185.878 9.31 187.348 9.31H215.548V31.49H182.158L182.128 31.5Z" fill="white"/>
<path d="M313.601 131.31V125.35C313.601 124.59 313.471 124.07 313.211 123.81C312.951 123.55 312.411 123.42 311.591 123.42H308.221C307.461 123.42 306.931 123.55 306.641 123.81C306.361 124.07 306.211 124.59 306.211 125.35V154.78C306.211 155.49 306.361 156 306.641 156.28C306.931 156.57 307.461 156.71 308.221 156.71H311.591C312.411 156.71 312.951 156.57 313.211 156.28C313.471 156 313.601 155.49 313.601 154.78V144.73H310.021V138.92H321.931V155.64C321.931 157.89 321.321 159.63 320.101 160.88C318.881 162.12 316.881 162.74 314.111 162.74H305.711C302.981 162.74 301.001 162.12 299.751 160.88C298.511 159.63 297.891 157.89 297.891 155.64V124.49C297.891 122.24 298.511 120.5 299.751 119.25C301.001 118.01 302.981 117.39 305.711 117.39H314.111C316.881 117.39 318.881 118.01 320.101 119.25C321.321 120.5 321.931 122.24 321.931 124.49V131.31H313.601Z" fill="white"/>
<path d="M350.897 144.8C352.377 144.52 353.527 143.97 354.327 143.15C355.547 141.91 356.158 140.16 356.158 137.91V124.49C356.158 122.24 355.547 120.5 354.327 119.25C353.107 118.01 351.107 117.39 348.337 117.39H331.688V162.67H339.938V145.02H342.647L349.557 162.67H358.457L350.897 144.8ZM339.938 123.7H345.897C346.707 123.7 347.247 123.83 347.507 124.1C347.767 124.36 347.908 124.87 347.908 125.64V136.98C347.908 137.7 347.767 138.2 347.507 138.49C347.247 138.77 346.707 138.92 345.897 138.92H339.938V123.7Z" fill="white"/>
<path d="M388.422 119.25C387.202 118.01 385.202 117.39 382.432 117.39H373.672C370.942 117.39 368.962 118.01 367.712 119.25C366.472 120.5 365.852 122.24 365.852 124.49V155.57C365.852 157.81 366.472 159.56 367.712 160.8C368.952 162.04 370.942 162.67 373.672 162.67H382.432C385.202 162.67 387.202 162.05 388.422 160.8C389.642 159.56 390.252 157.81 390.252 155.57V124.49C390.252 122.24 389.642 120.5 388.422 119.25ZM382.002 154.42C382.002 155.13 381.862 155.64 381.602 155.92C381.342 156.21 380.802 156.36 379.992 156.36H376.182C375.372 156.36 374.822 156.21 374.532 155.92C374.242 155.64 374.102 155.13 374.102 154.42V125.64C374.102 124.87 374.242 124.36 374.532 124.1C374.822 123.83 375.372 123.7 376.182 123.7H379.992C380.802 123.7 381.342 123.83 381.602 124.1C381.862 124.36 382.002 124.87 382.002 125.64V154.42Z" fill="white"/>
<path d="M424.837 117.39V155.57C424.837 157.81 424.207 159.56 422.967 160.8C421.727 162.05 419.737 162.67 417.017 162.67H408.257C405.477 162.67 403.487 162.05 402.267 160.8C401.047 159.56 400.438 157.81 400.438 155.57V117.39H408.688V154.42C408.688 155.13 408.827 155.64 409.117 155.92C409.407 156.21 409.927 156.36 410.697 156.36H414.497C415.317 156.36 415.867 156.21 416.147 155.92C416.437 155.64 416.577 155.13 416.577 154.42V117.39H424.837Z" fill="white"/>
<path d="M457.812 119.25C456.592 118.01 454.602 117.39 451.822 117.39H435.172V162.67H443.432V146.02H451.822C454.602 146.02 456.592 145.4 457.812 144.15C459.032 142.91 459.642 141.17 459.642 138.92V124.49C459.642 122.24 459.032 120.5 457.812 119.25ZM451.392 137.77C451.392 138.49 451.262 138.99 451.002 139.27C450.732 139.56 450.192 139.71 449.382 139.71H443.432V123.7H449.382C450.192 123.7 450.732 123.83 451.002 124.1C451.262 124.36 451.392 124.87 451.392 125.64V137.77Z" fill="white"/>
<path d="M280.83 142.34H0V144.2H280.83V142.34Z" fill="white"/>
</g>
</g>
<defs>
<clipPath id="clip0_2670_124">
<rect width="462" height="163" fill="white"/>
</clipPath>
</defs>
</svg>
